# xmcd
#
# Track frame offsets: 
#        150
#        10115
#        27760
#        41108
#        60442
#        80960
#        93052
#        114174
#        132832
#        143999
#        157658
#        176116
#        187981
#        202733
#        215711
#        228863
#        255992
#        268041
#
# Disc length: 3729 seconds
#
# Revision: 0
# Processed by: cddbd v1.4PL0 Copyright (c) Steve Scherf et al.
# Submitted via: ExactAudioCopy v0.90b4
#
DISCID=e40e8f12
DTITLE=heroine - heroine
DYEAR=2002
DGENRE=Blues
TTITLE0=just as long as earth stood still
TTITLE1=vacant
TTITLE2=this very enemy of mine
TTITLE3=stone breaks
TTITLE4=dark eye
TTITLE5=sands
TTITLE6=devil
TTITLE7=swallows
TTITLE8=the yearn
TTITLE9=stand and stare
TTITLE10=at a glance
TTITLE11=soil
TTITLE12=before I'm home
TTITLE13=washed over
TTITLE14=underwater
TTITLE15=silent
TTITLE16=reason
TTITLE17=40
EXTD=
EXTT0=
EXTT1=
EXTT2=
EXTT3=
EXTT4=
EXTT5=
EXTT6=
EXTT7=
EXTT8=
EXTT9=
EXTT10=
EXTT11=
EXTT12=
EXTT13=
EXTT14=
EXTT15=
EXTT16=
EXTT17=
PLAYORDER=
